<?xml version="1.0" standalone="no"?>
<!DOCTYPE svg PUBLIC "-//W3C//DTD SVG 20010904//EN"
 "http://www.w3.org/TR/2001/REC-SVG-20010904/DTD/svg10.dtd">
<svg version="1.0" xmlns="http://www.w3.org/2000/svg"
 width="128.000000pt" height="128.000000pt" viewBox="0 0 128.000000 128.000000"
 preserveAspectRatio="xMidYMid meet">
<metadata>
Created by potrace 1.16, written by Peter Selinger 2001-2019
</metadata>
<g transform="translate(0.000000,128.000000) scale(0.100000,-0.100000)"
fill="#E9F0FF" stroke="none">
<path d="M989 1054 l-67 -67 -63 23 c-88 31 -286 39 -379 16 -108 -27 -238
-97 -320 -173 -91 -85 -160 -176 -160 -213 0 -48 118 -189 223 -267 l49 -36
-57 -57 c-47 -47 -56 -62 -53 -86 2 -24 8 -30 32 -32 27 -3 69 36 478 445 410
410 448 451 446 478 -3 25 -8 30 -33 33 -25 2 -40 -8 -96 -64z m-175 -127 l37
-12 -35 -34 -35 -34 -41 17 c-51 20 -149 21 -198 0 -49 -20 -100 -70 -123
-119 -24 -51 -25 -150 -3 -206 l17 -41 -46 -45 -45 -46 -64 45 c-64 46 -130
112 -163 162 -17 26 -17 27 10 66 65 94 194 192 313 237 109 41 273 46 376 10z
m-119 -143 c13 -5 -5 -29 -86 -110 -111 -111 -119 -113 -119 -34 0 84 65 150
147 150 23 0 49 -3 58 -6z"/>
<path d="M1033 869 l-31 -32 72 -71 c40 -39 81 -83 91 -99 17 -27 17 -28 -10
-68 -71 -101 -207 -200 -338 -244 -79 -26 -216 -36 -281 -19 -23 5 -33 1 -62
-27 -19 -18 -34 -36 -34 -40 0 -29 267 -39 365 -14 104 26 234 97 315 172 92
85 160 176 160 213 0 35 -66 125 -148 203 -33 31 -62 57 -64 57 -2 0 -18 -14
-35 -31z"/>
<path d="M834 668 c-23 -24 -45 -56 -48 -72 -9 -38 -66 -95 -104 -102 -17 -3
-49 -26 -73 -50 l-43 -44 69 0 c86 0 136 21 187 78 45 50 60 98 56 175 l-3 58
-41 -43z"/>
</g>
</svg>
