<?xml version="1.0" standalone="no"?>
<!DOCTYPE svg PUBLIC "-//W3C//DTD SVG 20010904//EN"
 "http://www.w3.org/TR/2001/REC-SVG-20010904/DTD/svg10.dtd">
<svg version="1.0" xmlns="http://www.w3.org/2000/svg"
 width="128.000000pt" height="128.000000pt" viewBox="0 0 128.000000 128.000000"
 preserveAspectRatio="xMidYMid meet">
<metadata>
Created by potrace 1.16, written by Peter Selinger 2001-2019
</metadata>
<g transform="translate(0.000000,128.000000) scale(0.100000,-0.100000)"
fill="#E9F0FF" stroke="none">
<path d="M17 1052 c-15 -17 -17 -60 -17 -414 0 -370 1 -396 18 -411 17 -15 75
-17 624 -17 573 0 606 1 621 18 15 17 17 60 17 414 0 370 -1 396 -18 411 -17
15 -75 17 -624 17 -573 0 -606 -1 -621 -18z m1143 -46 c0 -2 -112 -87 -248
-190 -155 -116 -258 -186 -272 -186 -14 0 -117 70 -272 186 -136 103 -248 188
-248 190 0 2 234 4 520 4 286 0 520 -2 520 -4z m-860 -216 c282 -212 294 -220
340 -220 46 0 58 8 341 221 132 99 243 179 245 176 2 -2 3 -150 2 -328 l-3
-324 -135 167 c-102 127 -141 168 -157 168 -48 0 -25 -43 111 -210 l134 -165
-269 -3 c-148 -1 -390 -1 -538 0 l-269 3 134 165 c136 167 158 210 112 210
-17 0 -55 -39 -152 -160 -71 -88 -133 -163 -137 -166 -5 -3 -9 141 -9 320 0
179 2 326 5 326 3 0 113 -81 245 -180z"/>
</g>
</svg>
