<?xml version="1.0" standalone="no"?>
<!DOCTYPE svg PUBLIC "-//W3C//DTD SVG 20010904//EN"
 "http://www.w3.org/TR/2001/REC-SVG-20010904/DTD/svg10.dtd">
<svg version="1.0" xmlns="http://www.w3.org/2000/svg"
 width="128.000000pt" height="128.000000pt" viewBox="0 0 128.000000 128.000000"
 preserveAspectRatio="xMidYMid meet">
<metadata>
Created by potrace 1.16, written by Peter Selinger 2001-2019
</metadata>
<g transform="translate(0.000000,128.000000) scale(0.100000,-0.100000)"
fill="#000000" stroke="none">
<path d="M482 1266 c-30 -7 -92 -33 -140 -56 -123 -61 -214 -154 -275 -281
-54 -111 -67 -169 -67 -289 0 -120 13 -178 67 -289 63 -131 153 -221 284 -284
111 -54 169 -67 289 -67 120 0 178 13 289 67 75 36 108 59 166 118 59 58 82
91 118 166 55 115 67 169 67 309 l0 110 -320 0 -320 0 0 -130 0 -130 180 0
c141 0 180 -3 180 -13 0 -21 -53 -99 -96 -140 -202 -196 -549 -103 -634 170
-25 82 -25 144 0 226 70 227 329 341 538 236 37 -19 70 -35 73 -37 7 -3 149
182 149 195 0 15 -121 82 -190 105 -82 27 -277 34 -358 14z"/>
</g>
</svg>
