<?xml version="1.0" standalone="no"?>
<!DOCTYPE svg PUBLIC "-//W3C//DTD SVG 20010904//EN"
 "http://www.w3.org/TR/2001/REC-SVG-20010904/DTD/svg10.dtd">
<svg version="1.0" xmlns="http://www.w3.org/2000/svg"
 width="128.000000pt" height="128.000000pt" viewBox="0 0 128.000000 128.000000"
 preserveAspectRatio="xMidYMid meet">
<metadata>
Created by potrace 1.16, written by Peter Selinger 2001-2019
</metadata>
<g transform="translate(0.000000,128.000000) scale(0.100000,-0.100000)"
fill="#E9F0FF" stroke="none">
<path d="M470 1024 c-101 -26 -231 -98 -310 -171 -92 -85 -160 -176 -160 -213
0 -73 183 -256 324 -325 120 -59 187 -75 316 -75 129 0 196 16 316 75 102 50
208 140 281 239 55 75 55 98 0 172 -112 151 -262 254 -433 299 -74 19 -260 19
-334 -1z m355 -102 c126 -44 262 -143 330 -241 l28 -41 -28 -41 c-39 -55 -132
-140 -202 -182 -147 -89 -336 -113 -487 -63 -130 44 -271 145 -340 245 l-29
41 28 40 c69 100 202 197 330 242 68 24 96 28 185 28 89 0 117 -4 185 -28z"/>
<path d="M535 861 c-87 -40 -135 -120 -135 -223 1 -142 97 -238 240 -238 144
0 240 96 240 240 0 104 -53 187 -142 224 -52 22 -153 20 -203 -3z m183 -91
c130 -79 74 -280 -78 -280 -85 0 -150 65 -150 150 0 85 65 150 150 150 27 0
58 -8 78 -20z"/>
</g>
</svg>
