<?xml version="1.0" standalone="no"?>
<!DOCTYPE svg PUBLIC "-//W3C//DTD SVG 20010904//EN"
 "http://www.w3.org/TR/2001/REC-SVG-20010904/DTD/svg10.dtd">
<svg version="1.0" xmlns="http://www.w3.org/2000/svg"
 width="128.000000pt" height="128.000000pt" viewBox="0 0 128.000000 128.000000"
 preserveAspectRatio="xMidYMid meet">
<metadata>
Created by potrace 1.16, written by Peter Selinger 2001-2019
</metadata>
<g transform="translate(0.000000,128.000000) scale(0.100000,-0.100000)"
fill="#E9F0FF" stroke="none">
<path d="M509 1261 c-73 -29 -137 -80 -178 -142 -50 -75 -64 -129 -60 -231 5
-97 36 -173 100 -240 22 -23 38 -42 37 -43 -2 -1 -37 -20 -77 -41 -114 -59
-207 -156 -264 -275 -47 -98 -67 -170 -67 -244 l0 -45 55 0 55 0 0 43 c0 104
64 240 156 331 104 105 226 156 374 156 148 0 270 -51 374 -156 92 -91 156
-227 156 -331 l0 -43 55 0 55 0 0 45 c0 74 -20 146 -67 244 -57 119 -150 216
-264 275 -40 21 -75 40 -77 41 -1 1 15 20 37 43 21 22 52 67 67 99 26 53 29
68 29 163 0 95 -3 111 -28 162 -36 74 -101 139 -175 175 -48 24 -71 28 -152
30 -74 2 -105 -1 -141 -16z m237 -110 c52 -24 111 -83 135 -135 25 -55 25
-157 0 -212 -24 -52 -83 -111 -135 -135 -55 -25 -157 -25 -212 0 -52 24 -111
83 -135 135 -25 55 -25 157 0 212 10 23 36 58 56 79 54 53 107 75 185 75 42 0
79 -7 106 -19z"/>
</g>
</svg>
