<?xml version="1.0" standalone="no"?>
<!DOCTYPE svg PUBLIC "-//W3C//DTD SVG 20010904//EN"
 "http://www.w3.org/TR/2001/REC-SVG-20010904/DTD/svg10.dtd">
<svg version="1.0" xmlns="http://www.w3.org/2000/svg"
 width="19.000000pt" height="19.000000pt" viewBox="0 0 1024.000000 1024.000000"
 preserveAspectRatio="xMidYMid meet">

<g transform="translate(0.000000,1024.000000) scale(0.100000,-0.100000)"
fill="#0FD819" stroke="none">
<path d="M2783 8301 c-116 -40 -60 38 -1124 -1557 -1015 -1523 -1019 -1529
-1019 -1624 0 -95 4 -101 1020 -1624 897 -1347 992 -1486 1036 -1515 101 -66
-178 -61 3404 -59 l3255 3 56 26 c71 33 125 87 158 158 l26 56 0 2955 0 2955
-26 56 c-33 71 -87 125 -158 158 l-56 26 -3260 2 c-3117 2 -3262 2 -3312 -16z
m6177 -3181 l0 -2560 -2955 0 -2955 0 -850 1275 c-467 701 -850 1279 -850
1285 0 6 383 584 850 1285 l850 1275 2955 0 2955 0 0 -2560z"/>
<path d="M4063 7022 c-109 -39 -178 -112 -210 -221 -20 -70 -13 -143 22 -219
23 -50 110 -141 728 -759 l702 -703 -702 -702 c-791 -792 -758 -753 -758 -898
0 -181 134 -315 315 -315 145 0 106 -33 898 758 l702 702 703 -702 c791 -791
752 -758 897 -758 181 0 315 134 315 315 0 145 33 106 -758 898 l-702 702 702
703 c791 791 758 752 758 897 0 181 -134 315 -315 315 -145 0 -106 33 -897
-758 l-703 -702 -702 702 c-625 624 -709 705 -762 729 -77 35 -163 41 -233 16z"/>
</g>
</svg>
